M48
INCH,LZ
;FILE_FORMAT=2:4
;TYPE=PLATED
;Layer: PTH_Through
;EasyEDA v6.5.46, 2025-04-01 16:54:11
;10
;Gerber Generator version 0.2
;Holesize 1 = 0.0320 inch
T01C0.0320
;Holesize 2 = 0.0360 inch
T02C0.0360
;Holesize 3 = 0.0390 inch
T03C0.0390
%
G05
G90
T01
X022156Y007850
X022944Y007850
X038706Y007400
X039494Y007400
T02
X026100Y026600
X026100Y025600
X026100Y024600
X026100Y023600
X026100Y022600
X026100Y021600
X026100Y020600
X026100Y019600
X026100Y018600
X026100Y017600
X026100Y016600
X026100Y015600
X026100Y014600
X026100Y013600
X026100Y012600
X026100Y011600
X026100Y010600
X026100Y009600
X026100Y008600
X036100Y008600
X036100Y009600
X036100Y010600
X036100Y011600
X036100Y012600
X036100Y013600
X036100Y014600
X036100Y015600
X036100Y016600
X036100Y017600
X036100Y018600
X036100Y019600
X036100Y020600
X036100Y021600
X036100Y022600
X036100Y023600
X036100Y024600
X036100Y025600
X036100Y026600
T03
X019150Y010150G85X019150Y010150
X019150Y011150G85X019150Y011150
X020150Y010150G85X020150Y010150
X020150Y011150G85X020150Y011150
X021150Y010150G85X021150Y010150
X021150Y011150G85X021150Y011150
X022150Y010150G85X022150Y010150
X022150Y011150G85X022150Y011150
X038750Y010000G85X038750Y010000
X038750Y011000G85X038750Y011000
X039750Y010000G85X039750Y010000
X039750Y011000G85X039750Y011000
X040750Y010000G85X040750Y010000
X040750Y011000G85X040750Y011000
X041750Y010000G85X041750Y010000
X041750Y011000G85X041750Y011000
M30
