G04 Layer: TopSilkscreenLayer*
G04 EasyEDA v6.5.46, 2025-04-01 16:54:11*
G04 Gerber Generator version 0.2*
G04 Scale: 100 percent, Rotated: No, Reflected: No *
G04 Dimensions in inches *
G04 leading zeros omitted , absolute positions ,3 integer and 6 decimal *
%FSLAX36Y36*%
%MOIN*%

%ADD10C,0.0060*%
%ADD11C,0.0080*%
%ADD12C,0.0075*%
%ADD13C,0.0100*%
%ADD14C,0.0050*%
%ADD15C,0.0118*%
%ADD16C,0.0135*%

%LPD*%
D10*
X2276959Y930199D02*
G01*
X2274859Y934299D01*
X2270760Y938400D01*
X2266760Y940399D01*
X2258559Y940399D01*
X2254459Y938400D01*
X2250360Y934299D01*
X2248260Y930199D01*
X2246260Y924000D01*
X2246260Y913800D01*
X2248260Y907699D01*
X2250360Y903600D01*
X2254459Y899499D01*
X2258559Y897500D01*
X2266760Y897500D01*
X2270760Y899499D01*
X2274859Y903600D01*
X2276959Y907699D01*
X2290460Y932199D02*
G01*
X2294560Y934299D01*
X2300659Y940399D01*
X2300659Y897500D01*
X3931959Y885199D02*
G01*
X3929859Y889299D01*
X3925760Y893400D01*
X3921760Y895399D01*
X3913559Y895399D01*
X3909459Y893400D01*
X3905360Y889299D01*
X3903260Y885199D01*
X3901260Y879000D01*
X3901260Y868800D01*
X3903260Y862699D01*
X3905360Y858600D01*
X3909459Y854499D01*
X3913559Y852500D01*
X3921760Y852500D01*
X3925760Y854499D01*
X3929859Y858600D01*
X3931959Y862699D01*
X3947460Y885199D02*
G01*
X3947460Y887199D01*
X3949560Y891300D01*
X3951559Y893400D01*
X3955659Y895399D01*
X3963860Y895399D01*
X3967960Y893400D01*
X3969960Y891300D01*
X3972060Y887199D01*
X3972060Y883099D01*
X3969960Y879000D01*
X3965860Y872899D01*
X3945460Y852500D01*
X3974059Y852500D01*
X3106180Y2895399D02*
G01*
X3106180Y2864699D01*
X3108180Y2858600D01*
X3112280Y2854499D01*
X3118479Y2852500D01*
X3122579Y2852500D01*
X3128680Y2854499D01*
X3132780Y2858600D01*
X3134780Y2864699D01*
X3134780Y2895399D01*
X3148280Y2887199D02*
G01*
X3152380Y2889299D01*
X3158580Y2895399D01*
X3158580Y2852500D01*
D11*
X3325000Y939600D02*
G01*
X3325000Y883200D01*
X3325000Y939600D02*
G01*
X3349200Y939600D01*
X3357200Y936900D01*
X3359899Y934200D01*
X3362600Y928899D01*
X3362600Y923499D01*
X3359899Y918099D01*
X3357200Y915399D01*
X3349200Y912699D01*
X3325000Y912699D02*
G01*
X3349200Y912699D01*
X3357200Y910100D01*
X3359899Y907399D01*
X3362600Y901999D01*
X3362600Y894000D01*
X3359899Y888600D01*
X3357200Y885900D01*
X3349200Y883200D01*
X3325000Y883200D01*
X3396400Y939600D02*
G01*
X3391000Y936900D01*
X3385699Y931500D01*
X3383000Y926199D01*
X3380299Y918099D01*
X3380299Y904699D01*
X3383000Y896599D01*
X3385699Y891300D01*
X3391000Y885900D01*
X3396400Y883200D01*
X3407100Y883200D01*
X3412500Y885900D01*
X3417899Y891300D01*
X3420600Y896599D01*
X3423199Y904699D01*
X3423199Y918099D01*
X3420600Y926199D01*
X3417899Y931500D01*
X3412500Y936900D01*
X3407100Y939600D01*
X3396400Y939600D01*
X3457100Y939600D02*
G01*
X3451700Y936900D01*
X3446300Y931500D01*
X3443599Y926199D01*
X3441000Y918099D01*
X3441000Y904699D01*
X3443599Y896599D01*
X3446300Y891300D01*
X3451700Y885900D01*
X3457100Y883200D01*
X3467799Y883200D01*
X3473199Y885900D01*
X3478500Y891300D01*
X3481199Y896599D01*
X3483900Y904699D01*
X3483900Y918099D01*
X3481199Y926199D01*
X3478500Y931500D01*
X3473199Y936900D01*
X3467799Y939600D01*
X3457100Y939600D01*
X3520399Y939600D02*
G01*
X3520399Y883200D01*
X3501599Y939600D02*
G01*
X3539200Y939600D01*
X2728779Y919600D02*
G01*
X2728779Y863200D01*
X2728779Y919600D02*
G01*
X2752979Y919600D01*
X2761080Y916900D01*
X2763680Y914200D01*
X2766379Y908899D01*
X2766379Y903499D01*
X2763680Y898099D01*
X2761080Y895399D01*
X2752979Y892699D01*
X2728779Y892699D01*
X2747579Y892699D02*
G01*
X2766379Y863200D01*
X2821679Y911500D02*
G01*
X2816279Y916900D01*
X2808280Y919600D01*
X2797579Y919600D01*
X2789480Y916900D01*
X2784080Y911500D01*
X2784080Y906199D01*
X2786779Y900799D01*
X2789480Y898099D01*
X2794880Y895399D01*
X2810979Y890100D01*
X2816279Y887399D01*
X2818980Y884699D01*
X2821679Y879299D01*
X2821679Y871300D01*
X2816279Y865900D01*
X2808280Y863200D01*
X2797579Y863200D01*
X2789480Y865900D01*
X2784080Y871300D01*
X2858180Y919600D02*
G01*
X2858180Y863200D01*
X2839380Y919600D02*
G01*
X2876980Y919600D01*
X3010000Y795700D02*
G01*
X3010000Y741199D01*
X3013599Y730300D01*
X3020900Y723000D01*
X3031800Y719400D01*
X3039099Y719400D01*
X3050000Y723000D01*
X3057299Y730300D01*
X3060900Y741199D01*
X3060900Y795700D01*
X3135799Y784800D02*
G01*
X3128500Y792100D01*
X3117600Y795700D01*
X3103100Y795700D01*
X3092200Y792100D01*
X3084899Y784800D01*
X3084899Y777500D01*
X3088500Y770300D01*
X3092200Y766599D01*
X3099499Y763000D01*
X3121300Y755700D01*
X3128500Y752100D01*
X3132200Y748499D01*
X3135799Y741199D01*
X3135799Y730300D01*
X3128500Y723000D01*
X3117600Y719400D01*
X3103100Y719400D01*
X3092200Y723000D01*
X3084899Y730300D01*
X3159799Y795700D02*
G01*
X3159799Y719400D01*
X3159799Y795700D02*
G01*
X3192500Y795700D01*
X3203500Y792100D01*
X3207100Y788499D01*
X3210699Y781199D01*
X3210699Y773899D01*
X3207100Y766599D01*
X3203500Y763000D01*
X3192500Y759400D01*
X3159799Y759400D02*
G01*
X3192500Y759400D01*
X3203500Y755700D01*
X3207100Y752100D01*
X3210699Y744800D01*
X3210699Y733899D01*
X3207100Y726599D01*
X3203500Y723000D01*
X3192500Y719400D01*
X3159799Y719400D01*
X2939979Y2245700D02*
G01*
X2939979Y2169400D01*
X2939979Y2245700D02*
G01*
X2987280Y2245700D01*
X2939979Y2209400D02*
G01*
X2969080Y2209400D01*
X2939979Y2169400D02*
G01*
X2987280Y2169400D01*
X3062179Y2234800D02*
G01*
X3054880Y2242100D01*
X3043980Y2245700D01*
X3029480Y2245700D01*
X3018580Y2242100D01*
X3011279Y2234800D01*
X3011279Y2227500D01*
X3014880Y2220300D01*
X3018580Y2216599D01*
X3025780Y2213000D01*
X3047680Y2205700D01*
X3054880Y2202100D01*
X3058580Y2198499D01*
X3062179Y2191199D01*
X3062179Y2180300D01*
X3054880Y2173000D01*
X3043980Y2169400D01*
X3029480Y2169400D01*
X3018580Y2173000D01*
X3011279Y2180300D01*
X3086180Y2245700D02*
G01*
X3086180Y2169400D01*
X3086180Y2245700D02*
G01*
X3118879Y2245700D01*
X3129780Y2242100D01*
X3133479Y2238499D01*
X3137079Y2231199D01*
X3137079Y2220300D01*
X3133479Y2213000D01*
X3129780Y2209400D01*
X3118879Y2205700D01*
X3086180Y2205700D01*
X3168379Y2245700D02*
G01*
X3208379Y2245700D01*
X3186580Y2216599D01*
X3197479Y2216599D01*
X3204679Y2213000D01*
X3208379Y2209400D01*
X3211980Y2198499D01*
X3211980Y2191199D01*
X3208379Y2180300D01*
X3201080Y2173000D01*
X3190180Y2169400D01*
X3179279Y2169400D01*
X3168379Y2173000D01*
X3164679Y2176599D01*
X3161080Y2183899D01*
X3239679Y2227500D02*
G01*
X3239679Y2231199D01*
X3243280Y2238499D01*
X3246880Y2242100D01*
X3254179Y2245700D01*
X3268680Y2245700D01*
X3275979Y2242100D01*
X3279679Y2238499D01*
X3283280Y2231199D01*
X3283280Y2223899D01*
X3279679Y2216599D01*
X3272380Y2205700D01*
X3235979Y2169400D01*
X3286880Y2169400D01*
D10*
X2467287Y1454953D02*
G01*
X2497987Y1454953D01*
X2504088Y1456954D01*
X2508188Y1461053D01*
X2510187Y1467253D01*
X2510187Y1471354D01*
X2508188Y1477453D01*
X2504088Y1481554D01*
X2497987Y1483553D01*
X2467287Y1483553D01*
X2477488Y1499153D02*
G01*
X2475487Y1499153D01*
X2471387Y1501154D01*
X2469287Y1503254D01*
X2467287Y1507354D01*
X2467287Y1515453D01*
X2469287Y1519553D01*
X2471387Y1521653D01*
X2475487Y1523654D01*
X2479588Y1523654D01*
X2483688Y1521653D01*
X2489787Y1517554D01*
X2510187Y1497053D01*
X2510187Y1525754D01*
D12*
X2266000Y1190599D02*
G01*
X2263800Y1197500D01*
X2259200Y1199699D01*
X2254700Y1199699D01*
X2250100Y1197500D01*
X2247899Y1192899D01*
X2245600Y1183800D01*
X2243299Y1176999D01*
X2238800Y1172500D01*
X2234200Y1170199D01*
X2227399Y1170199D01*
X2222899Y1172500D01*
X2220600Y1174699D01*
X2218299Y1181599D01*
X2218299Y1190599D01*
X2220600Y1197500D01*
X2222899Y1199699D01*
X2227399Y1201999D01*
X2234200Y1201999D01*
X2238800Y1199699D01*
X2243299Y1195199D01*
X2245600Y1188400D01*
X2247899Y1179299D01*
X2250100Y1174699D01*
X2254700Y1172500D01*
X2259200Y1172500D01*
X2263800Y1174699D01*
X2266000Y1181599D01*
X2266000Y1190599D01*
X1949600Y1199699D02*
G01*
X1951800Y1199699D01*
X1956400Y1197500D01*
X1958699Y1195199D01*
X1960900Y1190599D01*
X1960900Y1181599D01*
X1958699Y1176999D01*
X1956400Y1174699D01*
X1951800Y1172500D01*
X1947299Y1172500D01*
X1942700Y1174699D01*
X1935900Y1179299D01*
X1913199Y1201999D01*
X1913199Y1170199D01*
D10*
X4427500Y1439198D02*
G01*
X4458199Y1439198D01*
X4464300Y1441199D01*
X4468400Y1445299D01*
X4470400Y1451498D01*
X4470400Y1455599D01*
X4468400Y1461698D01*
X4464300Y1465799D01*
X4458199Y1467799D01*
X4427500Y1467799D01*
X4427500Y1485399D02*
G01*
X4427500Y1507899D01*
X4443900Y1495698D01*
X4443900Y1501799D01*
X4445900Y1505898D01*
X4447900Y1507899D01*
X4454099Y1509998D01*
X4458199Y1509998D01*
X4464300Y1507899D01*
X4468400Y1503798D01*
X4470400Y1497698D01*
X4470400Y1491599D01*
X4468400Y1485399D01*
X4466400Y1483398D01*
X4462299Y1481298D01*
D12*
X4226000Y1175599D02*
G01*
X4223800Y1182500D01*
X4219200Y1184699D01*
X4214700Y1184699D01*
X4210100Y1182500D01*
X4207900Y1177899D01*
X4205600Y1168800D01*
X4203299Y1161999D01*
X4198800Y1157500D01*
X4194200Y1155199D01*
X4187399Y1155199D01*
X4182899Y1157500D01*
X4180600Y1159699D01*
X4178299Y1166599D01*
X4178299Y1175599D01*
X4180600Y1182500D01*
X4182899Y1184699D01*
X4187399Y1186999D01*
X4194200Y1186999D01*
X4198800Y1184699D01*
X4203299Y1180199D01*
X4205600Y1173400D01*
X4207900Y1164299D01*
X4210100Y1159699D01*
X4214700Y1157500D01*
X4219200Y1157500D01*
X4223800Y1159699D01*
X4226000Y1166599D01*
X4226000Y1175599D01*
X3909600Y1184699D02*
G01*
X3911800Y1184699D01*
X3916400Y1182500D01*
X3918699Y1180199D01*
X3920900Y1175599D01*
X3920900Y1166599D01*
X3918699Y1161999D01*
X3916400Y1159699D01*
X3911800Y1157500D01*
X3907299Y1157500D01*
X3902700Y1159699D01*
X3895900Y1164299D01*
X3873199Y1186999D01*
X3873199Y1155199D01*
G36*
X2325640Y850000D02*
G01*
X2325640Y720000D01*
X2329400Y723840D01*
X2332940Y727880D01*
X2336240Y732140D01*
X2339280Y736580D01*
X2342040Y741200D01*
X2344520Y745980D01*
X2346700Y750900D01*
X2348600Y755939D01*
X2350180Y761080D01*
X2351460Y766300D01*
X2352420Y771600D01*
X2353060Y776940D01*
X2353380Y782300D01*
X2353380Y787700D01*
X2353060Y793060D01*
X2352420Y798400D01*
X2351460Y803700D01*
X2350180Y808920D01*
X2348600Y814060D01*
X2346700Y819100D01*
X2344520Y824020D01*
X2342040Y828800D01*
X2339280Y833420D01*
X2336240Y837860D01*
X2332940Y842120D01*
X2329400Y846160D01*
G37*
G36*
X3980640Y805000D02*
G01*
X3980640Y675000D01*
X3984400Y678840D01*
X3987940Y682880D01*
X3991240Y687140D01*
X3994280Y691580D01*
X3997040Y696200D01*
X3999520Y700980D01*
X4001700Y705900D01*
X4003600Y710939D01*
X4005179Y716080D01*
X4006460Y721300D01*
X4007420Y726600D01*
X4008060Y731940D01*
X4008380Y737300D01*
X4008380Y742700D01*
X4008060Y748060D01*
X4007420Y753400D01*
X4006460Y758700D01*
X4005179Y763920D01*
X4003600Y769060D01*
X4001700Y774100D01*
X3999520Y779020D01*
X3997040Y783800D01*
X3994280Y788420D01*
X3991240Y792860D01*
X3987940Y797120D01*
X3984400Y801160D01*
G37*
D13*
X2195309Y844050D02*
G01*
X2235309Y844050D01*
X2215630Y863739D02*
G01*
X2215630Y823739D01*
X3850309Y799050D02*
G01*
X3890309Y799050D01*
X3870630Y818739D02*
G01*
X3870630Y778739D01*
X3465000Y2515000D02*
G01*
X3465000Y2535037D01*
X2754998Y2535000D02*
G01*
X2754998Y2514962D01*
X3466970Y1778463D02*
G01*
X3466970Y1811331D01*
X3363787Y1778463D02*
G01*
X3466970Y1778463D01*
X2757638Y1811332D02*
G01*
X2757638Y1778463D01*
X2860154Y1778463D01*
X2822638Y2580000D02*
G01*
X2822638Y2765000D01*
X2917638Y2765000D01*
X2917638Y2670000D01*
X3017638Y2670000D01*
X3017638Y2765000D01*
X3117638Y2765000D01*
X3117638Y2670000D01*
X3217638Y2670000D01*
X3217638Y2765000D01*
X3317638Y2765000D01*
X3317638Y2575000D01*
X3317638Y2765000D02*
G01*
X3397638Y2765000D01*
X3397638Y2575000D01*
X2954489Y878110D02*
G01*
X3265510Y878110D01*
X3265510Y641889D01*
X2954489Y641889D01*
X2954489Y878110D01*
X2755000Y2810590D02*
G01*
X3465000Y2810590D01*
X3465000Y2535000D01*
X2755000Y2535000D01*
X2755000Y2810590D01*
X2548190Y2840000D02*
G01*
X3671809Y2840000D01*
X3671809Y676219D01*
X2548190Y676219D01*
X2548190Y2840000D01*
X3317500Y1838460D02*
G01*
X3352500Y1838460D01*
X3352500Y1758460D01*
X3317500Y1758460D01*
X3317500Y1838460D01*
X3267500Y1838460D02*
G01*
X3302500Y1838460D01*
X3302500Y1758460D01*
X3267500Y1758460D01*
X3267500Y1838460D01*
X3217500Y1838460D02*
G01*
X3252500Y1838460D01*
X3252500Y1758460D01*
X3217500Y1758460D01*
X3217500Y1838460D01*
X3167500Y1838460D02*
G01*
X3202500Y1838460D01*
X3202500Y1758460D01*
X3167500Y1758460D01*
X3167500Y1838460D01*
X3117500Y1838460D02*
G01*
X3152500Y1838460D01*
X3152500Y1758460D01*
X3117500Y1758460D01*
X3117500Y1838460D01*
X3067500Y1838460D02*
G01*
X3102500Y1838460D01*
X3102500Y1758460D01*
X3067500Y1758460D01*
X3067500Y1838460D01*
X3017500Y1838460D02*
G01*
X3052500Y1838460D01*
X3052500Y1758460D01*
X3017500Y1758460D01*
X3017500Y1838460D01*
X2967500Y1838460D02*
G01*
X3002500Y1838460D01*
X3002500Y1758460D01*
X2967500Y1758460D01*
X2967500Y1838460D01*
X2917500Y1838460D02*
G01*
X2952500Y1838460D01*
X2952500Y1758460D01*
X2917500Y1758460D01*
X2917500Y1838460D01*
X2862500Y1838460D02*
G01*
X2902500Y1838460D01*
X2902500Y1758460D01*
X2862500Y1758460D01*
X2862500Y1838460D01*
X3407640Y2503460D02*
G01*
X3487640Y2503460D01*
X3487640Y2468460D01*
X3407640Y2468460D01*
X3407640Y2503460D01*
X3407640Y2453460D02*
G01*
X3487640Y2453460D01*
X3487640Y2418460D01*
X3407640Y2418460D01*
X3407640Y2453460D01*
X3407640Y2403460D02*
G01*
X3487640Y2403460D01*
X3487640Y2368460D01*
X3407640Y2368460D01*
X3407640Y2403460D01*
X3407640Y2353460D02*
G01*
X3487640Y2353460D01*
X3487640Y2318460D01*
X3407640Y2318460D01*
X3407640Y2353460D01*
X3407640Y2303460D02*
G01*
X3487640Y2303460D01*
X3487640Y2268460D01*
X3407640Y2268460D01*
X3407640Y2303460D01*
X3407640Y2253460D02*
G01*
X3487640Y2253460D01*
X3487640Y2218460D01*
X3407640Y2218460D01*
X3407640Y2253460D01*
X3407640Y2203460D02*
G01*
X3487640Y2203460D01*
X3487640Y2168460D01*
X3407640Y2168460D01*
X3407640Y2203460D01*
X3407640Y2153460D02*
G01*
X3487640Y2153460D01*
X3487640Y2118460D01*
X3407640Y2118460D01*
X3407640Y2153460D01*
X3407640Y2103460D02*
G01*
X3487640Y2103460D01*
X3487640Y2068460D01*
X3407640Y2068460D01*
X3407640Y2103460D01*
X3407640Y2053460D02*
G01*
X3487640Y2053460D01*
X3487640Y2018460D01*
X3407640Y2018460D01*
X3407640Y2053460D01*
X3407640Y2003460D02*
G01*
X3487640Y2003460D01*
X3487640Y1968460D01*
X3407640Y1968460D01*
X3407640Y2003460D01*
X3407640Y1953460D02*
G01*
X3487640Y1953460D01*
X3487640Y1918460D01*
X3407640Y1918460D01*
X3407640Y1953460D01*
X3407640Y1903460D02*
G01*
X3487640Y1903460D01*
X3487640Y1868460D01*
X3407640Y1868460D01*
X3407640Y1903460D01*
X3407640Y1853460D02*
G01*
X3487640Y1853460D01*
X3487640Y1818460D01*
X3407640Y1818460D01*
X3407640Y1853460D01*
X2732359Y1853460D02*
G01*
X2812359Y1853460D01*
X2812359Y1818460D01*
X2732359Y1818460D01*
X2732359Y1853460D01*
X2732359Y1903460D02*
G01*
X2812359Y1903460D01*
X2812359Y1868460D01*
X2732359Y1868460D01*
X2732359Y1903460D01*
X2732359Y1953460D02*
G01*
X2812359Y1953460D01*
X2812359Y1918460D01*
X2732359Y1918460D01*
X2732359Y1953460D01*
X2732359Y2003460D02*
G01*
X2812359Y2003460D01*
X2812359Y1968460D01*
X2732359Y1968460D01*
X2732359Y2003460D01*
X2732359Y2053460D02*
G01*
X2812359Y2053460D01*
X2812359Y2018460D01*
X2732359Y2018460D01*
X2732359Y2053460D01*
X2732359Y2103460D02*
G01*
X2812359Y2103460D01*
X2812359Y2068460D01*
X2732359Y2068460D01*
X2732359Y2103460D01*
X2732359Y2153460D02*
G01*
X2812359Y2153460D01*
X2812359Y2118460D01*
X2732359Y2118460D01*
X2732359Y2153460D01*
X2732359Y2203460D02*
G01*
X2812359Y2203460D01*
X2812359Y2168460D01*
X2732359Y2168460D01*
X2732359Y2203460D01*
X2732359Y2253460D02*
G01*
X2812359Y2253460D01*
X2812359Y2218460D01*
X2732359Y2218460D01*
X2732359Y2253460D01*
X2732359Y2303460D02*
G01*
X2812359Y2303460D01*
X2812359Y2268460D01*
X2732359Y2268460D01*
X2732359Y2303460D01*
X2732359Y2353460D02*
G01*
X2812359Y2353460D01*
X2812359Y2318460D01*
X2732359Y2318460D01*
X2732359Y2353460D01*
X2732359Y2403460D02*
G01*
X2812359Y2403460D01*
X2812359Y2368460D01*
X2732359Y2368460D01*
X2732359Y2403460D01*
X2732359Y2453460D02*
G01*
X2812359Y2453460D01*
X2812359Y2418460D01*
X2732359Y2418460D01*
X2732359Y2453460D01*
X2732359Y2503460D02*
G01*
X2812359Y2503460D01*
X2812359Y2468460D01*
X2732359Y2468460D01*
X2732359Y2503460D01*
X3350000Y850000D02*
G01*
X3505000Y850000D01*
X3505000Y730000D01*
X3350000Y730000D01*
X3350000Y850000D01*
X2715000Y850000D02*
G01*
X2870000Y850000D01*
X2870000Y730000D01*
X2715000Y730000D01*
X2715000Y850000D01*
X2800000Y1545000D02*
G01*
X2850000Y1545000D01*
X2850000Y1445000D01*
X2800000Y1445000D01*
X2800000Y1545000D01*
X2802500Y1425000D02*
G01*
X2847500Y1425000D01*
X2847500Y1325000D01*
X2802500Y1325000D01*
X2802500Y1425000D01*
X3165000Y1525000D02*
G01*
X3275000Y1525000D01*
X3275000Y1475000D01*
X3165000Y1475000D01*
X3165000Y1525000D01*
X3200000Y1545000D02*
G01*
X3240000Y1545000D01*
X3240000Y1525000D01*
X3200000Y1525000D01*
X3200000Y1545000D01*
X3180000Y1475000D02*
G01*
X3200000Y1475000D01*
X3200000Y1450000D01*
X3180000Y1450000D01*
X3180000Y1475000D01*
X3240000Y1475000D02*
G01*
X3260000Y1475000D01*
X3260000Y1450000D01*
X3240000Y1450000D01*
X3240000Y1475000D01*
X3065000Y1265000D02*
G01*
X3270000Y1265000D01*
X3270000Y1060000D01*
X3065000Y1060000D01*
X3065000Y1265000D01*
X2737500Y1192500D02*
G01*
X2937500Y1192500D01*
X2937500Y1042500D01*
X2737500Y1042500D01*
X2737500Y1192500D01*
X2787500Y1247500D02*
G01*
X2887500Y1247500D01*
X2887500Y1192500D01*
X2787500Y1192500D01*
X2787500Y1247500D01*
X2880000Y1040000D02*
G01*
X2905000Y1040000D01*
X2905000Y985000D01*
X2880000Y985000D01*
X2880000Y1040000D01*
X2825000Y1040000D02*
G01*
X2850000Y1040000D01*
X2850000Y985000D01*
X2825000Y985000D01*
X2825000Y1040000D01*
X2770000Y1040000D02*
G01*
X2795000Y1040000D01*
X2795000Y985000D01*
X2770000Y985000D01*
X2770000Y1040000D01*
X3415000Y1475000D02*
G01*
X3435000Y1475000D01*
X3435000Y1450000D01*
X3415000Y1450000D01*
X3415000Y1475000D01*
X3355000Y1475000D02*
G01*
X3375000Y1475000D01*
X3375000Y1450000D01*
X3355000Y1450000D01*
X3355000Y1475000D01*
X3375000Y1545000D02*
G01*
X3415000Y1545000D01*
X3415000Y1525000D01*
X3375000Y1525000D01*
X3375000Y1545000D01*
X3340000Y1525000D02*
G01*
X3450000Y1525000D01*
X3450000Y1475000D01*
X3340000Y1475000D01*
X3340000Y1525000D01*
X2852500Y1705000D02*
G01*
X2897500Y1705000D01*
X2897500Y1605000D01*
X2852500Y1605000D01*
X2852500Y1705000D01*
X2920000Y1705000D02*
G01*
X2965000Y1705000D01*
X2965000Y1605000D01*
X2920000Y1605000D01*
X2920000Y1705000D01*
X2987500Y1705000D02*
G01*
X3032500Y1705000D01*
X3032500Y1605000D01*
X2987500Y1605000D01*
X2987500Y1705000D01*
X3055000Y1705000D02*
G01*
X3100000Y1705000D01*
X3100000Y1605000D01*
X3055000Y1605000D01*
X3055000Y1705000D01*
X3122500Y1705000D02*
G01*
X3167500Y1705000D01*
X3167500Y1605000D01*
X3122500Y1605000D01*
X3122500Y1705000D01*
X3190000Y1705000D02*
G01*
X3235000Y1705000D01*
X3235000Y1605000D01*
X3190000Y1605000D01*
X3190000Y1705000D01*
X3257500Y1705000D02*
G01*
X3302500Y1705000D01*
X3302500Y1605000D01*
X3257500Y1605000D01*
X3257500Y1705000D01*
X3325000Y1705000D02*
G01*
X3370000Y1705000D01*
X3370000Y1605000D01*
X3325000Y1605000D01*
X3325000Y1705000D01*
X3170000Y1400000D02*
G01*
X3270000Y1400000D01*
X3270000Y1355000D01*
X3170000Y1355000D01*
X3170000Y1400000D01*
X3380000Y1397500D02*
G01*
X3480000Y1397500D01*
X3480000Y1352500D01*
X3380000Y1352500D01*
X3380000Y1397500D01*
X3380000Y1327500D02*
G01*
X3480000Y1327500D01*
X3480000Y1282500D01*
X3380000Y1282500D01*
X3380000Y1327500D01*
X3380000Y1257500D02*
G01*
X3480000Y1257500D01*
X3480000Y1212500D01*
X3380000Y1212500D01*
X3380000Y1257500D01*
X3380000Y1187500D02*
G01*
X3480000Y1187500D01*
X3480000Y1142500D01*
X3380000Y1142500D01*
X3380000Y1187500D01*
X3380000Y1117500D02*
G01*
X3480000Y1117500D01*
X3480000Y1072500D01*
X3380000Y1072500D01*
X3380000Y1117500D01*
X3380000Y1047500D02*
G01*
X3480000Y1047500D01*
X3480000Y1002500D01*
X3380000Y1002500D01*
X3380000Y1047500D01*
X2885000Y1424369D02*
G01*
X3014049Y1424369D01*
X3014049Y1330000D01*
X2885000Y1330000D01*
X2885000Y1424369D01*
X2880000Y1540000D02*
G01*
X3030000Y1540000D01*
X3030000Y1470000D01*
X2880000Y1470000D01*
X2880000Y1540000D01*
X3070000Y1015000D02*
G01*
X3220000Y1015000D01*
X3220000Y945000D01*
X3070000Y945000D01*
X3070000Y1015000D01*
D14*
X1840979Y955940D02*
G01*
X1840979Y2077989D01*
X2439409Y2077989D01*
X2439409Y955940D01*
X1840979Y955940D01*
X3800979Y940940D02*
G01*
X3800979Y2062989D01*
X4399409Y2062989D01*
X4399409Y940940D01*
X3800979Y940940D01*
D15*
G75*
G01
X2353430Y785000D02*
G03X2353430Y785000I-98430J0D01*
G75*
G01
X4008430Y740000D02*
G03X4008430Y740000I-98430J0D01*
D13*
G75*
G01
X3465430Y790000D02*
G03X3465430Y790000I-35430J0D01*
G75*
G01
X2825430Y790000D02*
G03X2825430Y790000I-35430J0D01*
G75*
G01
X2670000Y2770000D02*
G03X2670000Y2770000I-50000J0D01*
G75*
G01
X2670000Y750000D02*
G03X2670000Y750000I-50000J0D01*
G75*
G01
X3650000Y750000D02*
G03X3650000Y750000I-50000J0D01*
G75*
G01
X3650000Y2770000D02*
G03X3650000Y2770000I-50000J0D01*
M02*
