G04 Layer: BottomLayer*
G04 EasyEDA v6.5.46, 2025-04-01 16:54:11*
G04 Gerber Generator version 0.2*
G04 Scale: 100 percent, Rotated: No, Reflected: No *
G04 Dimensions in inches *
G04 leading zeros omitted , absolute positions ,3 integer and 6 decimal *
%FSLAX36Y36*%
%MOIN*%

%ADD10C,0.0080*%
%ADD11C,0.0512*%
%ADD12C,0.0600*%
%ADD13R,0.0594X0.0594*%
%ADD14C,0.0594*%
%ADD15C,0.0176*%

%LPD*%
D10*
X4400000Y3495727D02*
G01*
X4400000Y3419364D01*
X4400000Y3455727D02*
G01*
X4389090Y3466635D01*
X4381818Y3470273D01*
X4370909Y3470273D01*
X4363635Y3466635D01*
X4360000Y3455727D01*
X4360000Y3419364D01*
X4325091Y3495727D02*
G01*
X4325091Y3433908D01*
X4321454Y3423000D01*
X4314182Y3419364D01*
X4306908Y3419364D01*
X4336000Y3470273D02*
G01*
X4310545Y3470273D01*
X4271999Y3495727D02*
G01*
X4271999Y3433908D01*
X4268364Y3423000D01*
X4261090Y3419364D01*
X4253818Y3419364D01*
X4282909Y3470273D02*
G01*
X4257455Y3470273D01*
X4229817Y3470273D02*
G01*
X4229817Y3393908D01*
X4229817Y3459364D02*
G01*
X4222545Y3466635D01*
X4215272Y3470273D01*
X4204363Y3470273D01*
X4197091Y3466635D01*
X4189817Y3459364D01*
X4186181Y3448454D01*
X4186181Y3441181D01*
X4189817Y3430273D01*
X4197091Y3423000D01*
X4204363Y3419364D01*
X4215272Y3419364D01*
X4222545Y3423000D01*
X4229817Y3430273D01*
X4122182Y3459364D02*
G01*
X4125817Y3466635D01*
X4136727Y3470273D01*
X4147636Y3470273D01*
X4158545Y3466635D01*
X4162182Y3459364D01*
X4158545Y3452091D01*
X4151273Y3448454D01*
X4133091Y3444818D01*
X4125817Y3441181D01*
X4122182Y3433908D01*
X4122182Y3430273D01*
X4125817Y3423000D01*
X4136727Y3419364D01*
X4147636Y3419364D01*
X4158545Y3423000D01*
X4162182Y3430273D01*
X4094544Y3463000D02*
G01*
X4098181Y3459364D01*
X4094544Y3455727D01*
X4090909Y3459364D01*
X4094544Y3463000D01*
X4094544Y3437545D02*
G01*
X4098181Y3433908D01*
X4094544Y3430273D01*
X4090909Y3433908D01*
X4094544Y3437545D01*
X4001454Y3510273D02*
G01*
X4066908Y3393908D01*
X3911999Y3510273D02*
G01*
X3977455Y3393908D01*
X3844363Y3470273D02*
G01*
X3844363Y3412091D01*
X3848000Y3401181D01*
X3851635Y3397545D01*
X3858909Y3393908D01*
X3869817Y3393908D01*
X3877091Y3397545D01*
X3844363Y3459364D02*
G01*
X3851635Y3466635D01*
X3858909Y3470273D01*
X3869817Y3470273D01*
X3877091Y3466635D01*
X3884363Y3459364D01*
X3888000Y3448454D01*
X3888000Y3441181D01*
X3884363Y3430273D01*
X3877091Y3423000D01*
X3869817Y3419364D01*
X3858909Y3419364D01*
X3851635Y3423000D01*
X3844363Y3430273D01*
X3820363Y3495727D02*
G01*
X3816727Y3492091D01*
X3813091Y3495727D01*
X3816727Y3499364D01*
X3820363Y3495727D01*
X3816727Y3470273D02*
G01*
X3816727Y3419364D01*
X3778181Y3495727D02*
G01*
X3778181Y3433908D01*
X3774544Y3423000D01*
X3767272Y3419364D01*
X3760000Y3419364D01*
X3789090Y3470273D02*
G01*
X3763635Y3470273D01*
X3736000Y3495727D02*
G01*
X3736000Y3419364D01*
X3736000Y3455727D02*
G01*
X3725091Y3466635D01*
X3717817Y3470273D01*
X3706908Y3470273D01*
X3699636Y3466635D01*
X3696000Y3455727D01*
X3696000Y3419364D01*
X3671999Y3470273D02*
G01*
X3671999Y3433908D01*
X3668364Y3423000D01*
X3661090Y3419364D01*
X3650182Y3419364D01*
X3642908Y3423000D01*
X3631999Y3433908D01*
X3631999Y3470273D02*
G01*
X3631999Y3419364D01*
X3608000Y3495727D02*
G01*
X3608000Y3419364D01*
X3608000Y3459364D02*
G01*
X3600726Y3466635D01*
X3593455Y3470273D01*
X3582545Y3470273D01*
X3575272Y3466635D01*
X3568000Y3459364D01*
X3564363Y3448454D01*
X3564363Y3441181D01*
X3568000Y3430273D01*
X3575272Y3423000D01*
X3582545Y3419364D01*
X3593455Y3419364D01*
X3600726Y3423000D01*
X3608000Y3430273D01*
X3536727Y3437545D02*
G01*
X3540363Y3433908D01*
X3536727Y3430273D01*
X3533091Y3433908D01*
X3536727Y3437545D01*
X3465455Y3459364D02*
G01*
X3472727Y3466635D01*
X3480000Y3470273D01*
X3490909Y3470273D01*
X3498181Y3466635D01*
X3505455Y3459364D01*
X3509090Y3448454D01*
X3509090Y3441181D01*
X3505455Y3430273D01*
X3498181Y3423000D01*
X3490909Y3419364D01*
X3480000Y3419364D01*
X3472727Y3423000D01*
X3465455Y3430273D01*
X3423272Y3470273D02*
G01*
X3430545Y3466635D01*
X3437817Y3459364D01*
X3441454Y3448454D01*
X3441454Y3441181D01*
X3437817Y3430273D01*
X3430545Y3423000D01*
X3423272Y3419364D01*
X3412363Y3419364D01*
X3405091Y3423000D01*
X3397817Y3430273D01*
X3394182Y3441181D01*
X3394182Y3448454D01*
X3397817Y3459364D01*
X3405091Y3466635D01*
X3412363Y3470273D01*
X3423272Y3470273D01*
X3370182Y3470273D02*
G01*
X3370182Y3419364D01*
X3370182Y3455727D02*
G01*
X3359273Y3466635D01*
X3351999Y3470273D01*
X3341090Y3470273D01*
X3333818Y3466635D01*
X3330182Y3455727D01*
X3330182Y3419364D01*
X3330182Y3455727D02*
G01*
X3319273Y3466635D01*
X3311999Y3470273D01*
X3301090Y3470273D01*
X3293818Y3466635D01*
X3290182Y3455727D01*
X3290182Y3419364D01*
X3200726Y3510273D02*
G01*
X3266181Y3393908D01*
X3176727Y3495727D02*
G01*
X3176727Y3419364D01*
X3176727Y3495727D02*
G01*
X3143999Y3495727D01*
X3133091Y3492091D01*
X3129454Y3488454D01*
X3125817Y3481181D01*
X3125817Y3470273D01*
X3129454Y3463000D01*
X3133091Y3459364D01*
X3143999Y3455727D01*
X3176727Y3455727D01*
X3083635Y3470273D02*
G01*
X3090909Y3466635D01*
X3098181Y3459364D01*
X3101818Y3448454D01*
X3101818Y3441181D01*
X3098181Y3430273D01*
X3090909Y3423000D01*
X3083635Y3419364D01*
X3072727Y3419364D01*
X3065455Y3423000D01*
X3058181Y3430273D01*
X3054544Y3441181D01*
X3054544Y3448454D01*
X3058181Y3459364D01*
X3065455Y3466635D01*
X3072727Y3470273D01*
X3083635Y3470273D01*
X3019636Y3495727D02*
G01*
X3019636Y3433908D01*
X3016000Y3423000D01*
X3008726Y3419364D01*
X3001454Y3419364D01*
X3030545Y3470273D02*
G01*
X3005091Y3470273D01*
X2959273Y3470273D02*
G01*
X2966544Y3466635D01*
X2973818Y3459364D01*
X2977455Y3448454D01*
X2977455Y3441181D01*
X2973818Y3430273D01*
X2966544Y3423000D01*
X2959273Y3419364D01*
X2948364Y3419364D01*
X2941090Y3423000D01*
X2933818Y3430273D01*
X2930182Y3441181D01*
X2930182Y3448454D01*
X2933818Y3459364D01*
X2941090Y3466635D01*
X2948364Y3470273D01*
X2959273Y3470273D01*
X2906181Y3495727D02*
G01*
X2906181Y3419364D01*
X2869817Y3470273D02*
G01*
X2906181Y3433908D01*
X2891635Y3448454D02*
G01*
X2866181Y3419364D01*
X2831273Y3495727D02*
G01*
X2831273Y3433908D01*
X2827636Y3423000D01*
X2820363Y3419364D01*
X2813091Y3419364D01*
X2842182Y3470273D02*
G01*
X2816727Y3470273D01*
X2789090Y3448454D02*
G01*
X2745455Y3448454D01*
X2745455Y3455727D01*
X2749090Y3463000D01*
X2752727Y3466635D01*
X2760000Y3470273D01*
X2770909Y3470273D01*
X2778181Y3466635D01*
X2785455Y3459364D01*
X2789090Y3448454D01*
X2789090Y3441181D01*
X2785455Y3430273D01*
X2778181Y3423000D01*
X2770909Y3419364D01*
X2760000Y3419364D01*
X2752727Y3423000D01*
X2745455Y3430273D01*
X2677817Y3459364D02*
G01*
X2685091Y3466635D01*
X2692363Y3470273D01*
X2703272Y3470273D01*
X2710545Y3466635D01*
X2717817Y3459364D01*
X2721454Y3448454D01*
X2721454Y3441181D01*
X2717817Y3430273D01*
X2710545Y3423000D01*
X2703272Y3419364D01*
X2692363Y3419364D01*
X2685091Y3423000D01*
X2677817Y3430273D01*
X2653818Y3495727D02*
G01*
X2653818Y3419364D01*
X2653818Y3455727D02*
G01*
X2642908Y3466635D01*
X2635636Y3470273D01*
X2624727Y3470273D01*
X2617455Y3466635D01*
X2613818Y3455727D01*
X2613818Y3419364D01*
X2524363Y3510273D02*
G01*
X2589817Y3393908D01*
X2500363Y3495727D02*
G01*
X2500363Y3419364D01*
X2500363Y3495727D02*
G01*
X2467636Y3495727D01*
X2456727Y3492091D01*
X2453091Y3488454D01*
X2449454Y3481181D01*
X2449454Y3470273D01*
X2453091Y3463000D01*
X2456727Y3459364D01*
X2467636Y3455727D01*
X2500363Y3455727D01*
X2407272Y3470273D02*
G01*
X2414544Y3466635D01*
X2421818Y3459364D01*
X2425455Y3448454D01*
X2425455Y3441181D01*
X2421818Y3430273D01*
X2414544Y3423000D01*
X2407272Y3419364D01*
X2396364Y3419364D01*
X2389090Y3423000D01*
X2381818Y3430273D01*
X2378181Y3441181D01*
X2378181Y3448454D01*
X2381818Y3459364D01*
X2389090Y3466635D01*
X2396364Y3470273D01*
X2407272Y3470273D01*
X2343272Y3495727D02*
G01*
X2343272Y3433908D01*
X2339636Y3423000D01*
X2332363Y3419364D01*
X2325091Y3419364D01*
X2354182Y3470273D02*
G01*
X2328726Y3470273D01*
X2282908Y3470273D02*
G01*
X2290182Y3466635D01*
X2297455Y3459364D01*
X2301090Y3448454D01*
X2301090Y3441181D01*
X2297455Y3430273D01*
X2290182Y3423000D01*
X2282908Y3419364D01*
X2271999Y3419364D01*
X2264727Y3423000D01*
X2257455Y3430273D01*
X2253818Y3441181D01*
X2253818Y3448454D01*
X2257455Y3459364D01*
X2264727Y3466635D01*
X2271999Y3470273D01*
X2282908Y3470273D01*
X2229817Y3495727D02*
G01*
X2229817Y3419364D01*
X2193455Y3470273D02*
G01*
X2229817Y3433908D01*
X2215272Y3448454D02*
G01*
X2189817Y3419364D01*
X2154908Y3495727D02*
G01*
X2154908Y3433908D01*
X2151273Y3423000D01*
X2143999Y3419364D01*
X2136727Y3419364D01*
X2165817Y3470273D02*
G01*
X2140363Y3470273D01*
X2112727Y3448454D02*
G01*
X2069090Y3448454D01*
X2069090Y3455727D01*
X2072727Y3463000D01*
X2076364Y3466635D01*
X2083635Y3470273D01*
X2094544Y3470273D01*
X2101818Y3466635D01*
X2109090Y3459364D01*
X2112727Y3448454D01*
X2112727Y3441181D01*
X2109090Y3430273D01*
X2101818Y3423000D01*
X2094544Y3419364D01*
X2083635Y3419364D01*
X2076364Y3423000D01*
X2069090Y3430273D01*
X2001454Y3459364D02*
G01*
X2008726Y3466635D01*
X2016000Y3470273D01*
X2026908Y3470273D01*
X2034182Y3466635D01*
X2041454Y3459364D01*
X2045091Y3448454D01*
X2045091Y3441181D01*
X2041454Y3430273D01*
X2034182Y3423000D01*
X2026908Y3419364D01*
X2016000Y3419364D01*
X2008726Y3423000D01*
X2001454Y3430273D01*
X1977455Y3495727D02*
G01*
X1977455Y3419364D01*
X1977455Y3455727D02*
G01*
X1966544Y3466635D01*
X1959273Y3470273D01*
X1948364Y3470273D01*
X1941090Y3466635D01*
X1937455Y3455727D01*
X1937455Y3419364D01*
D11*
G01*
X2215630Y785000D03*
G01*
X2294369Y785000D03*
G01*
X3870630Y740000D03*
G01*
X3949369Y740000D03*
D12*
G01*
X2610000Y2660000D03*
G01*
X2610000Y2560000D03*
G01*
X2610000Y2460000D03*
G01*
X2610000Y2360000D03*
G01*
X2610000Y2260000D03*
G01*
X2610000Y2160000D03*
G01*
X2610000Y2060000D03*
G01*
X2610000Y1960000D03*
G01*
X2610000Y1860000D03*
G01*
X2610000Y1760000D03*
G01*
X2610000Y1660000D03*
G01*
X2610000Y1560000D03*
G01*
X2610000Y1460000D03*
G01*
X2610000Y1360000D03*
G01*
X2610000Y1260000D03*
G01*
X2610000Y1160000D03*
G01*
X2610000Y1060000D03*
G01*
X2610000Y960000D03*
G01*
X2610000Y860000D03*
G01*
X3610000Y860000D03*
G01*
X3610000Y960000D03*
G01*
X3610000Y1060000D03*
G01*
X3610000Y1160000D03*
G01*
X3610000Y1260000D03*
G01*
X3610000Y1360000D03*
G01*
X3610000Y1460000D03*
G01*
X3610000Y1560000D03*
G01*
X3610000Y1660000D03*
G01*
X3610000Y1760000D03*
G01*
X3610000Y1860000D03*
G01*
X3610000Y1960000D03*
G01*
X3610000Y2060000D03*
G01*
X3610000Y2160000D03*
G01*
X3610000Y2260000D03*
G01*
X3610000Y2360000D03*
G01*
X3610000Y2460000D03*
G01*
X3610000Y2560000D03*
G01*
X3610000Y2660000D03*
D13*
G01*
X1915000Y1015000D03*
D14*
G01*
X1915000Y1115000D03*
G01*
X2015000Y1015000D03*
G01*
X2015000Y1115000D03*
G01*
X2115000Y1015000D03*
G01*
X2115000Y1115000D03*
G01*
X2215000Y1015000D03*
G01*
X2215000Y1115000D03*
D13*
G01*
X3875000Y1000000D03*
D14*
G01*
X3875000Y1100000D03*
G01*
X3975000Y1000000D03*
G01*
X3975000Y1100000D03*
G01*
X4075000Y1000000D03*
G01*
X4075000Y1100000D03*
G01*
X4175000Y1000000D03*
G01*
X4175000Y1100000D03*
M02*
