G04 Layer: TopSolderMaskLayer*
G04 EasyEDA v6.5.46, 2025-04-01 16:54:11*
G04 Gerber Generator version 0.2*
G04 Scale: 100 percent, Rotated: No, Reflected: No *
G04 Dimensions in inches *
G04 leading zeros omitted , absolute positions ,3 integer and 6 decimal *
%FSLAX36Y36*%
%MOIN*%

%AMMACRO1*4,1,8,-0.0305,-0.0317,-0.0317,-0.0305,-0.0317,0.0305,-0.0305,0.0317,0.0305,0.0317,0.0317,0.0305,0.0317,-0.0305,0.0305,-0.0317,-0.0305,-0.0317,0*%
%ADD10C,0.0552*%
%ADD11C,0.0640*%
%ADD12MACRO1*%
%ADD13C,0.0634*%

%LPD*%
D10*
G01*
X2215630Y785000D03*
G01*
X2294369Y785000D03*
G01*
X3870630Y740000D03*
G01*
X3949369Y740000D03*
D11*
G01*
X2610000Y2660000D03*
G01*
X2610000Y2560000D03*
G01*
X2610000Y2460000D03*
G01*
X2610000Y2360000D03*
G01*
X2610000Y2260000D03*
G01*
X2610000Y2160000D03*
G01*
X2610000Y2060000D03*
G01*
X2610000Y1960000D03*
G01*
X2610000Y1860000D03*
G01*
X2610000Y1760000D03*
G01*
X2610000Y1660000D03*
G01*
X2610000Y1560000D03*
G01*
X2610000Y1460000D03*
G01*
X2610000Y1360000D03*
G01*
X2610000Y1260000D03*
G01*
X2610000Y1160000D03*
G01*
X2610000Y1060000D03*
G01*
X2610000Y960000D03*
G01*
X2610000Y860000D03*
G01*
X3610000Y860000D03*
G01*
X3610000Y960000D03*
G01*
X3610000Y1060000D03*
G01*
X3610000Y1160000D03*
G01*
X3610000Y1260000D03*
G01*
X3610000Y1360000D03*
G01*
X3610000Y1460000D03*
G01*
X3610000Y1560000D03*
G01*
X3610000Y1660000D03*
G01*
X3610000Y1760000D03*
G01*
X3610000Y1860000D03*
G01*
X3610000Y1960000D03*
G01*
X3610000Y2060000D03*
G01*
X3610000Y2160000D03*
G01*
X3610000Y2260000D03*
G01*
X3610000Y2360000D03*
G01*
X3610000Y2460000D03*
G01*
X3610000Y2560000D03*
G01*
X3610000Y2660000D03*
D12*
G01*
X1915005Y1014995D03*
D13*
G01*
X1915000Y1115000D03*
G01*
X2015000Y1015000D03*
G01*
X2015000Y1115000D03*
G01*
X2115000Y1015000D03*
G01*
X2115000Y1115000D03*
G01*
X2215000Y1015000D03*
G01*
X2215000Y1115000D03*
D12*
G01*
X3875005Y999995D03*
D13*
G01*
X3875000Y1100000D03*
G01*
X3975000Y1000000D03*
G01*
X3975000Y1100000D03*
G01*
X4075000Y1000000D03*
G01*
X4075000Y1100000D03*
G01*
X4175000Y1000000D03*
G01*
X4175000Y1100000D03*
M02*
